<svg xmlns="http://www.w3.org/2000/svg" width="56" height="56" fill-rule="evenodd"><circle cx="28" cy="28" r="28" fill="#29b672"/><g fill="#fff"><path d="M15.4 17.5c0-1.16.93-2.1 2.1-2.1h21c1.16 0 2.1.93 2.1 2.1v7.04c0 1.14-.93 2.07-2.07 2.07v-9.1H17.55v9.1a2.15 2.15 0 0 1-2.15-2.15V17.5z" opacity=".6"/><path d="M19.6 19.6h16.8v20a1 1 0 0 1-1 1H20.6a1 1 0 0 1-1-1v-20zm10.1 9.25c-.48-.28-1-.48-1.5-.7a3.3 3.3 0 0 1-.82-.47c-.48-.4-.4-1.05.18-1.3a1.24 1.24 0 0 1 .5-.1 3.52 3.52 0 0 1 1.88.38c.3.14.4.1.5-.22l.28-1.02c.07-.23-.01-.38-.22-.48a4.45 4.45 0 0 0-1.19-.37c-.53-.08-.53-.1-.54-.65 0-.78 0-.78-.76-.78h-.33c-.36 0-.42.07-.43.44v.5c0 .5 0 .5-.46.66-1.1.42-1.8 1.2-1.86 2.45-.07 1.1.5 1.85 1.36 2.4.54.33 1.14.53 1.7.8.23.1.44.2.63.37.55.47.45 1.26-.2 1.55-.36.16-.72.2-1.1.15a4.77 4.77 0 0 1-1.68-.52c-.3-.16-.4-.12-.5.23-.1.3-.17.6-.25.9-.1.4-.07.5.3.7.48.23 1 .36 1.5.44.4.07.42.1.43.52v.6c0 .25.12.4.37.4h.84c.23 0 .35-.14.35-.38v-.8c0-.28.1-.42.36-.5a2.82 2.82 0 0 0 .62-5.19z"/></g><circle cx="48" cy="10" r="8" fill="#8ed4b2"/><path fill="#fff" d="M46.87 10.7l3.9-3.9a.5.5 0 0 1 .7 0l.7.72c.2.2.2.5 0 .7l-4.16 4.17a.5.5 0 0 1-.08.1l-.7.7a.5.5 0 0 1-.71 0l-2.83-2.83a.5.5 0 0 1 0-.7l.7-.7c.2-.2.52-.2.7 0l1.76 1.74z"/></svg>