<svg xmlns="http://www.w3.org/2000/svg" width="144" height="34" fill-rule="evenodd" viewBox="0 0 579 140"><circle cx="70" cy="70" r="70" fill="#f70"/><g fill="#fff"><rect width="17.5" height="65.625" x="59.063" y="42.656" rx="8.75"/><rect width="17.5" height="49.219" x="30.625" y="59.063" rx="8.75"/><rect width="17.5" height="80.938" x="87.5" y="27.344" rx="8.75"/></g><path fill="#000" d="M176.694 40.404a9.587 9.587 0 0 1-3.745-.749 9.601 9.601 0 0 1-3.11-2.074 9.776 9.776 0 0 1-2.075-3.053c-.5-1.152-.75-2.42-.75-3.802s.25-2.65.75-3.803a9.776 9.776 0 0 1 2.073-3.053 9.601 9.601 0 0 1 3.111-2.074 9.587 9.587 0 0 1 3.745-.75c2.69 0 4.993.942 6.914 2.824s2.88 4.167 2.88 6.856-.96 4.973-2.88 6.855-4.225 2.823-6.914 2.823zm-7.5 64.64V48.586H184.3v56.46h-15.094zm64.162 1.268v-8.066c-1.382 2.382-3.533 4.417-6.452 6.107s-6.53 2.535-10.83 2.535c-3.6 0-7.048-.75-10.313-2.247a27.571 27.571 0 0 1-8.641-6.222c-2.497-2.65-4.475-5.818-5.934-9.506s-2.2-7.72-2.2-12.098.73-8.41 2.2-12.098 3.437-6.856 5.934-9.506a27.571 27.571 0 0 1 8.641-6.222 24.444 24.444 0 0 1 10.313-2.247c4.3 0 7.912.845 10.83 2.535s5.07 3.725 6.453 6.106l.006-6.798h15.088v81.348h-15.094v-23.62zm-14.172-13.366c1.997 0 3.898-.365 5.703-1.094a14.25 14.25 0 0 0 4.782-3.17c1.383-1.382 2.497-3.072 3.342-5.07s1.267-4.263 1.267-6.798-.422-4.8-1.267-6.798-1.96-3.687-3.342-5.07a14.25 14.25 0 0 0-4.782-3.169 15.074 15.074 0 0 0-5.703-1.094 14.42 14.42 0 0 0-5.704 1.152 15.013 15.013 0 0 0-4.782 3.226c-1.382 1.383-2.496 3.073-3.34 5.07s-1.267 4.225-1.267 6.683.422 4.686 1.267 6.683 1.96 3.687 3.34 5.07a15.013 15.013 0 0 0 4.782 3.226 14.417 14.417 0 0 0 5.704 1.152zm83.155-46.204c4.38 0 8.393.75 12.04 2.247s6.798 3.57 9.45 6.222 4.724 5.818 6.222 9.506 2.247 7.72 2.247 12.098-.75 8.41-2.247 12.098-3.572 6.856-6.222 9.506-5.8 4.724-9.45 6.222-7.662 2.247-12.04 2.247-8.393-.75-12.04-2.247-6.798-3.572-9.45-6.222-4.724-5.818-6.222-9.506-2.247-7.72-2.247-12.098.75-8.41 2.247-12.098 3.572-6.856 6.222-9.506 5.8-4.725 9.45-6.222 7.662-2.247 12.04-2.247zm0 46.204c1.92 0 3.784-.365 5.59-1.094a14.25 14.25 0 0 0 4.782-3.17c1.382-1.382 2.477-3.072 3.283-5.07s1.2-4.263 1.2-6.798-.403-4.8-1.2-6.798-1.9-3.687-3.283-5.07a14.25 14.25 0 0 0-4.782-3.169 14.78 14.78 0 0 0-5.589-1.094c-1.997 0-3.88.365-5.645 1.094a14.405 14.405 0 0 0-4.725 3.169c-1.382 1.383-2.477 3.073-3.283 5.07s-1.2 4.263-1.2 6.798.403 4.8 1.2 6.798 1.9 3.687 3.283 5.07a14.405 14.405 0 0 0 4.725 3.169c1.766.73 3.648 1.094 5.645 1.094zm33.282-44.36h15.1v6.797c1.377-2.38 3.528-4.416 6.447-6.106s6.53-2.535 10.83-2.535a24.44 24.44 0 0 1 10.312 2.247 27.571 27.571 0 0 1 8.642 6.222c2.497 2.65 4.475 5.818 5.934 9.506s2.2 7.72 2.2 12.098-.73 8.41-2.2 12.098-3.437 6.856-5.934 9.506a27.571 27.571 0 0 1-8.642 6.222 24.444 24.444 0 0 1-10.312 2.247c-4.302 0-7.912-.845-10.83-2.535s-5.07-3.725-6.452-6.107v31.686H335.63V48.586zm29.267 44.36c1.997 0 3.898-.384 5.704-1.152a15.013 15.013 0 0 0 4.781-3.226c1.383-1.383 2.497-3.073 3.342-5.07s1.267-4.225 1.267-6.683-.422-4.686-1.267-6.683-1.96-3.687-3.342-5.07a15.013 15.013 0 0 0-4.781-3.226 14.417 14.417 0 0 0-5.704-1.152c-1.997 0-3.898.365-5.704 1.094a14.25 14.25 0 0 0-4.781 3.169c-1.383 1.383-2.497 3.073-3.342 5.07s-1.267 4.263-1.267 6.798.422 4.8 1.267 6.798 1.96 3.687 3.342 5.07a14.25 14.25 0 0 0 4.781 3.169 15.074 15.074 0 0 0 5.704 1.094zM403.365 61.5h-9.9V48.585h9.9V31.302h15.094v17.283h13.827V61.5H418.46v21.893c0 1.306.134 2.515.403 3.63s.788 2.054 1.556 2.822c1.075 1.23 2.612 1.844 4.61 1.844 1.306 0 2.343-.135 3.1-.404a9.727 9.727 0 0 0 2.19-1.094l4.263 13.25a24.885 24.885 0 0 1-5.703 1.902c-2.036.422-4.283.633-6.74.633-2.843 0-5.397-.44-7.663-1.325s-4.167-2.093-5.704-3.63c-3.6-3.456-5.415-8.372-5.415-14.748V61.5zm43.652-21.086a9.587 9.587 0 0 1-3.745-.749 9.601 9.601 0 0 1-3.111-2.074 9.776 9.776 0 0 1-2.074-3.053c-.5-1.152-.75-2.42-.75-3.802s.25-2.65.75-3.803a9.776 9.776 0 0 1 2.074-3.053 9.601 9.601 0 0 1 3.11-2.074 9.587 9.587 0 0 1 3.746-.75c2.688 0 4.993.942 6.913 2.824s2.88 4.167 2.88 6.856-.96 4.973-2.88 6.855a9.52 9.52 0 0 1-6.913 2.823zm-7.5 64.64V48.586h15.094v56.46h-15.094zm49.76-58.302c4.378 0 8.392.75 12.04 2.247s6.8 3.57 9.45 6.222 4.724 5.818 6.222 9.506 2.247 7.72 2.247 12.098-.75 8.41-2.247 12.098-3.572 6.856-6.222 9.506-5.8 4.724-9.448 6.222-7.663 2.247-12.04 2.247-8.392-.75-12.04-2.247-6.798-3.572-9.448-6.222-4.724-5.818-6.222-9.506-2.247-7.72-2.247-12.098.75-8.41 2.247-12.098 3.572-6.856 6.222-9.506 5.8-4.725 9.448-6.222 7.662-2.247 12.04-2.247zm0 46.204a14.79 14.79 0 0 0 5.588-1.094 14.25 14.25 0 0 0 4.782-3.17c1.383-1.382 2.477-3.072 3.284-5.07s1.2-4.263 1.2-6.798-.404-4.8-1.2-6.798-1.9-3.687-3.284-5.07a14.25 14.25 0 0 0-4.782-3.169 14.78 14.78 0 0 0-5.588-1.094c-1.997 0-3.88.365-5.646 1.094a14.405 14.405 0 0 0-4.724 3.169c-1.383 1.383-2.478 3.073-3.284 5.07s-1.2 4.263-1.2 6.798.403 4.8 1.2 6.798 1.9 3.687 3.284 5.07a14.405 14.405 0 0 0 4.724 3.169c1.767.73 3.65 1.094 5.646 1.094zm47.34-36.986h.922c1.766-2.843 4.148-5.1 7.144-6.74s6.414-2.477 10.254-2.477c3.534 0 6.645.576 9.333 1.728s4.897 2.785 6.626 4.897 3.034 4.647 3.917 7.605 1.325 6.24 1.325 9.85v34.222h-15.094V72.667c0-4.07-.902-7.086-2.708-9.045s-4.436-2.938-7.892-2.938c-2.074 0-3.9.44-5.473 1.325a12.778 12.778 0 0 0-4.033 3.572c-1.114 1.498-1.96 3.264-2.535 5.3s-.864 4.206-.864 6.5v27.654h-15.095v-56.46h14.173v7.375z"/></svg>